<?xml version="1.0" encoding="UTF-8" ?>
<svg version="1.1" width="64" height="64" xmlns="http://www.w3.org/2000/svg" shape-rendering="crispEdges">
<rect x="0" y="0" width="64" height="13" fill="#050403" />
<rect x="0" y="13" width="28" height="1" fill="#050403" />
<rect x="28" y="13" width="8" height="1" fill="#0041FF" />
<rect x="36" y="13" width="28" height="1" fill="#050403" />
<rect x="0" y="14" width="25" height="1" fill="#050403" />
<rect x="25" y="14" width="4" height="1" fill="#0082FF" />
<rect x="29" y="14" width="6" height="2" fill="#00BEFF" />
<rect x="35" y="14" width="4" height="1" fill="#0082FF" />
<rect x="39" y="14" width="25" height="1" fill="#050403" />
<rect x="0" y="15" width="23" height="1" fill="#050403" />
<rect x="23" y="15" width="3" height="1" fill="#0082FF" />
<rect x="26" y="15" width="3" height="1" fill="#00BEFF" />
<rect x="35" y="15" width="3" height="1" fill="#00BEFF" />
<rect x="38" y="15" width="3" height="1" fill="#0082FF" />
<rect x="41" y="15" width="23" height="1" fill="#050403" />
<rect x="0" y="16" width="22" height="1" fill="#050403" />
<rect x="22" y="16" width="1" height="1" fill="#0082FF" />
<rect x="23" y="16" width="5" height="1" fill="#00BEFF" />
<rect x="28" y="16" width="8" height="22" fill="#00FFFF" />
<rect x="36" y="16" width="5" height="1" fill="#00BEFF" />
<rect x="41" y="16" width="1" height="1" fill="#0082FF" />
<rect x="42" y="16" width="22" height="1" fill="#050403" />
<rect x="0" y="17" width="20" height="1" fill="#050403" />
<rect x="20" y="17" width="4" height="1" fill="#00BEFF" />
<rect x="24" y="17" width="4" height="8" fill="#00FFFF" />
<rect x="36" y="17" width="4" height="8" fill="#00FFFF" />
<rect x="40" y="17" width="4" height="1" fill="#00BEFF" />
<rect x="44" y="17" width="20" height="1" fill="#050403" />
<rect x="0" y="18" width="19" height="2" fill="#050403" />
<rect x="19" y="18" width="2" height="1" fill="#00BEFF" />
<rect x="21" y="18" width="3" height="20" fill="#00FFFF" />
<rect x="40" y="18" width="3" height="20" fill="#00FFFF" />
<rect x="43" y="18" width="2" height="1" fill="#00BEFF" />
<rect x="45" y="18" width="19" height="2" fill="#050403" />
<rect x="19" y="19" width="1" height="1" fill="#00BEFF" />
<rect x="20" y="19" width="1" height="19" fill="#00FFFF" />
<rect x="43" y="19" width="1" height="19" fill="#00FFFF" />
<rect x="44" y="19" width="1" height="1" fill="#00BEFF" />
<rect x="0" y="20" width="18" height="1" fill="#050403" />
<rect x="18" y="20" width="1" height="1" fill="#00BEFF" />
<rect x="19" y="20" width="1" height="18" fill="#00FFFF" />
<rect x="44" y="20" width="1" height="18" fill="#00FFFF" />
<rect x="45" y="20" width="1" height="1" fill="#00BEFF" />
<rect x="46" y="20" width="18" height="1" fill="#050403" />
<rect x="0" y="21" width="17" height="2" fill="#050403" />
<rect x="17" y="21" width="2" height="16" fill="#00FFFF" />
<rect x="45" y="21" width="2" height="16" fill="#00FFFF" />
<rect x="47" y="21" width="17" height="2" fill="#050403" />
<rect x="0" y="23" width="16" height="3" fill="#050403" />
<rect x="16" y="23" width="1" height="13" fill="#00FFFF" />
<rect x="47" y="23" width="1" height="13" fill="#00FFFF" />
<rect x="48" y="23" width="16" height="3" fill="#050403" />
<rect x="24" y="25" width="2" height="14" fill="#00FFFF" />
<rect x="26" y="25" width="2" height="1" fill="#00BEFF" />
<rect x="36" y="25" width="2" height="1" fill="#00BEFF" />
<rect x="38" y="25" width="2" height="14" fill="#00FFFF" />
<rect x="0" y="26" width="15" height="3" fill="#050403" />
<rect x="15" y="26" width="1" height="9" fill="#00FFFF" />
<rect x="26" y="26" width="2" height="1" fill="#0082FF" />
<rect x="36" y="26" width="2" height="1" fill="#0082FF" />
<rect x="48" y="26" width="1" height="9" fill="#00FFFF" />
<rect x="49" y="26" width="15" height="3" fill="#050403" />
<rect x="26" y="27" width="2" height="6" fill="#0041FF" />
<rect x="36" y="27" width="2" height="6" fill="#0041FF" />
<rect x="0" y="29" width="13" height="1" fill="#050403" />
<rect x="13" y="29" width="2" height="1" fill="#00FFFF" />
<rect x="49" y="29" width="2" height="1" fill="#00FFFF" />
<rect x="51" y="29" width="13" height="1" fill="#050403" />
<rect x="0" y="30" width="12" height="1" fill="#050403" />
<rect x="12" y="30" width="2" height="1" fill="#00BEFF" />
<rect x="14" y="30" width="1" height="1" fill="#00FFFF" />
<rect x="49" y="30" width="1" height="1" fill="#00FFFF" />
<rect x="50" y="30" width="2" height="1" fill="#00BEFF" />
<rect x="52" y="30" width="12" height="1" fill="#050403" />
<rect x="0" y="31" width="11" height="15" fill="#050403" />
<rect x="11" y="31" width="2" height="2" fill="#0082FF" />
<rect x="13" y="31" width="2" height="1" fill="#00BEFF" />
<rect x="49" y="31" width="2" height="1" fill="#00BEFF" />
<rect x="51" y="31" width="2" height="2" fill="#0082FF" />
<rect x="53" y="31" width="11" height="15" fill="#050403" />
<rect x="13" y="32" width="1" height="2" fill="#0082FF" />
<rect x="14" y="32" width="1" height="1" fill="#00BEFF" />
<rect x="49" y="32" width="1" height="1" fill="#00BEFF" />
<rect x="50" y="32" width="1" height="2" fill="#0082FF" />
<rect x="11" y="33" width="2" height="1" fill="#0041FF" />
<rect x="14" y="33" width="1" height="12" fill="#050403" />
<rect x="26" y="33" width="2" height="1" fill="#0082FF" />
<rect x="36" y="33" width="2" height="1" fill="#0082FF" />
<rect x="49" y="33" width="1" height="12" fill="#050403" />
<rect x="51" y="33" width="2" height="1" fill="#0041FF" />
<rect x="11" y="34" width="1" height="11" fill="#050403" />
<rect x="12" y="34" width="2" height="1" fill="#0041FF" />
<rect x="26" y="34" width="2" height="1" fill="#00BEFF" />
<rect x="36" y="34" width="2" height="1" fill="#00BEFF" />
<rect x="50" y="34" width="2" height="1" fill="#0041FF" />
<rect x="52" y="34" width="1" height="11" fill="#050403" />
<rect x="12" y="35" width="2" height="10" fill="#050403" />
<rect x="15" y="35" width="1" height="1" fill="#00BEFF" />
<rect x="26" y="35" width="2" height="4" fill="#00FFFF" />
<rect x="36" y="35" width="2" height="4" fill="#00FFFF" />
<rect x="48" y="35" width="1" height="1" fill="#00BEFF" />
<rect x="50" y="35" width="2" height="10" fill="#050403" />
<rect x="15" y="36" width="1" height="9" fill="#050403" />
<rect x="16" y="36" width="1" height="3" fill="#00BEFF" />
<rect x="47" y="36" width="1" height="3" fill="#00BEFF" />
<rect x="48" y="36" width="1" height="9" fill="#050403" />
<rect x="17" y="37" width="1" height="5" fill="#00BEFF" />
<rect x="18" y="37" width="1" height="1" fill="#00FFFF" />
<rect x="45" y="37" width="1" height="1" fill="#00FFFF" />
<rect x="46" y="37" width="1" height="5" fill="#00BEFF" />
<rect x="18" y="38" width="4" height="6" fill="#00BEFF" />
<rect x="22" y="38" width="2" height="1" fill="#00FFFF" />
<rect x="28" y="38" width="3" height="2" fill="#00FFFF" />
<rect x="31" y="38" width="2" height="2" fill="#005E5E" />
<rect x="33" y="38" width="3" height="2" fill="#00FFFF" />
<rect x="40" y="38" width="2" height="1" fill="#00FFFF" />
<rect x="42" y="38" width="4" height="6" fill="#00BEFF" />
<rect x="16" y="39" width="1" height="2" fill="#050403" />
<rect x="22" y="39" width="5" height="5" fill="#00BEFF" />
<rect x="27" y="39" width="1" height="1" fill="#00FFFF" />
<rect x="36" y="39" width="1" height="1" fill="#00FFFF" />
<rect x="37" y="39" width="5" height="5" fill="#00BEFF" />
<rect x="47" y="39" width="1" height="2" fill="#050403" />
<rect x="27" y="40" width="10" height="5" fill="#00BEFF" />
<rect x="16" y="41" width="1" height="1" fill="#050606" />
<rect x="47" y="41" width="1" height="1" fill="#050606" />
<rect x="16" y="42" width="2" height="1" fill="#050403" />
<rect x="46" y="42" width="2" height="1" fill="#050403" />
<rect x="16" y="43" width="1" height="1" fill="#050403" />
<rect x="17" y="43" width="1" height="1" fill="#050606" />
<rect x="46" y="43" width="1" height="1" fill="#050606" />
<rect x="47" y="43" width="1" height="1" fill="#050403" />
<rect x="16" y="44" width="2" height="1" fill="#090C18" />
<rect x="18" y="44" width="6" height="1" fill="#0082FF" />
<rect x="24" y="44" width="3" height="1" fill="#00BEFF" />
<rect x="37" y="44" width="3" height="1" fill="#00BEFF" />
<rect x="40" y="44" width="6" height="1" fill="#0082FF" />
<rect x="46" y="44" width="2" height="1" fill="#090C18" />
<rect x="11" y="45" width="5" height="1" fill="#090C18" />
<rect x="16" y="45" width="3" height="1" fill="#11162C" />
<rect x="19" y="45" width="10" height="1" fill="#0082FF" />
<rect x="29" y="45" width="6" height="1" fill="#00BEFF" />
<rect x="35" y="45" width="10" height="1" fill="#0082FF" />
<rect x="45" y="45" width="3" height="1" fill="#11162C" />
<rect x="48" y="45" width="5" height="1" fill="#090C18" />
<rect x="0" y="46" width="8" height="1" fill="#050403" />
<rect x="8" y="46" width="3" height="1" fill="#090C18" />
<rect x="11" y="46" width="4" height="1" fill="#11162C" />
<rect x="15" y="46" width="5" height="1" fill="#1B2447" />
<rect x="20" y="46" width="24" height="2" fill="#0082FF" />
<rect x="44" y="46" width="5" height="1" fill="#1B2447" />
<rect x="49" y="46" width="4" height="1" fill="#11162C" />
<rect x="53" y="46" width="3" height="1" fill="#090C18" />
<rect x="56" y="46" width="8" height="1" fill="#050403" />
<rect x="0" y="47" width="5" height="1" fill="#050403" />
<rect x="5" y="47" width="3" height="1" fill="#090C18" />
<rect x="8" y="47" width="5" height="1" fill="#11162C" />
<rect x="13" y="47" width="6" height="13" fill="#1B2447" />
<rect x="19" y="47" width="1" height="1" fill="#1B2549" />
<rect x="44" y="47" width="1" height="1" fill="#1B2549" />
<rect x="45" y="47" width="6" height="13" fill="#1B2447" />
<rect x="51" y="47" width="5" height="1" fill="#11162C" />
<rect x="56" y="47" width="3" height="1" fill="#090C18" />
<rect x="59" y="47" width="5" height="1" fill="#050403" />
<rect x="0" y="48" width="4" height="1" fill="#050403" />
<rect x="4" y="48" width="2" height="1" fill="#090C18" />
<rect x="6" y="48" width="5" height="1" fill="#11162C" />
<rect x="11" y="48" width="2" height="11" fill="#1B2447" />
<rect x="19" y="48" width="2" height="10" fill="#1B2447" />
<rect x="21" y="48" width="5" height="2" fill="#0041FF" />
<rect x="26" y="48" width="12" height="1" fill="#0082FF" />
<rect x="38" y="48" width="5" height="2" fill="#0041FF" />
<rect x="43" y="48" width="2" height="10" fill="#1B2447" />
<rect x="51" y="48" width="2" height="11" fill="#1B2447" />
<rect x="53" y="48" width="5" height="1" fill="#11162C" />
<rect x="58" y="48" width="2" height="1" fill="#090C18" />
<rect x="60" y="48" width="4" height="1" fill="#050403" />
<rect x="0" y="49" width="2" height="1" fill="#050403" />
<rect x="2" y="49" width="2" height="1" fill="#090C18" />
<rect x="4" y="49" width="6" height="1" fill="#11162C" />
<rect x="10" y="49" width="1" height="9" fill="#1B2447" />
<rect x="26" y="49" width="4" height="4" fill="#0041FF" />
<rect x="30" y="49" width="4" height="1" fill="#0082FF" />
<rect x="34" y="49" width="4" height="4" fill="#0041FF" />
<rect x="53" y="49" width="1" height="9" fill="#1B2447" />
<rect x="54" y="49" width="6" height="1" fill="#11162C" />
<rect x="60" y="49" width="2" height="1" fill="#090C18" />
<rect x="62" y="49" width="2" height="1" fill="#050403" />
<rect x="0" y="50" width="1" height="1" fill="#050403" />
<rect x="1" y="50" width="2" height="1" fill="#090C18" />
<rect x="3" y="50" width="6" height="1" fill="#11162C" />
<rect x="9" y="50" width="1" height="7" fill="#1B2447" />
<rect x="21" y="50" width="1" height="6" fill="#1B2447" />
<rect x="22" y="50" width="4" height="1" fill="#0041FF" />
<rect x="30" y="50" width="4" height="4" fill="#0041FF" />
<rect x="38" y="50" width="4" height="1" fill="#0041FF" />
<rect x="42" y="50" width="1" height="6" fill="#1B2447" />
<rect x="54" y="50" width="1" height="7" fill="#1B2447" />
<rect x="55" y="50" width="6" height="1" fill="#11162C" />
<rect x="61" y="50" width="2" height="1" fill="#090C18" />
<rect x="63" y="50" width="1" height="1" fill="#050403" />
<rect x="0" y="51" width="2" height="1" fill="#090C18" />
<rect x="2" y="51" width="6" height="1" fill="#11162C" />
<rect x="8" y="51" width="1" height="5" fill="#1B2447" />
<rect x="22" y="51" width="1" height="4" fill="#1B2447" />
<rect x="23" y="51" width="3" height="2" fill="#0041FF" />
<rect x="38" y="51" width="3" height="2" fill="#0041FF" />
<rect x="41" y="51" width="1" height="4" fill="#1B2447" />
<rect x="55" y="51" width="1" height="5" fill="#1B2447" />
<rect x="56" y="51" width="6" height="1" fill="#11162C" />
<rect x="62" y="51" width="2" height="1" fill="#090C18" />
<rect x="0" y="52" width="1" height="1" fill="#090C18" />
<rect x="1" y="52" width="6" height="4" fill="#11162C" />
<rect x="7" y="52" width="1" height="3" fill="#1B2447" />
<rect x="56" y="52" width="1" height="3" fill="#1B2447" />
<rect x="57" y="52" width="6" height="4" fill="#11162C" />
<rect x="63" y="52" width="1" height="1" fill="#090C18" />
<rect x="0" y="53" width="1" height="2" fill="#11162C" />
<rect x="23" y="53" width="4" height="4" fill="#111E63" />
<rect x="27" y="53" width="3" height="1" fill="#0041FF" />
<rect x="34" y="53" width="3" height="1" fill="#0041FF" />
<rect x="37" y="53" width="4" height="4" fill="#111E63" />
<rect x="63" y="53" width="1" height="2" fill="#11162C" />
<rect x="27" y="54" width="10" height="2" fill="#111E63" />
<rect x="0" y="55" width="1" height="2" fill="#090C18" />
<rect x="7" y="55" width="1" height="5" fill="#11162C" />
<rect x="22" y="55" width="1" height="3" fill="#111E63" />
<rect x="41" y="55" width="1" height="3" fill="#111E63" />
<rect x="56" y="55" width="1" height="5" fill="#11162C" />
<rect x="63" y="55" width="1" height="2" fill="#090C18" />
<rect x="1" y="56" width="1" height="2" fill="#090C18" />
<rect x="2" y="56" width="5" height="1" fill="#11162C" />
<rect x="8" y="56" width="1" height="5" fill="#11162C" />
<rect x="21" y="56" width="1" height="2" fill="#111E63" />
<rect x="27" y="56" width="3" height="1" fill="#111E63" />
<rect x="30" y="56" width="4" height="4" fill="#112463" />
<rect x="34" y="56" width="3" height="1" fill="#111E63" />
<rect x="42" y="56" width="1" height="2" fill="#111E63" />
<rect x="55" y="56" width="1" height="5" fill="#11162C" />
<rect x="57" y="56" width="5" height="1" fill="#11162C" />
<rect x="62" y="56" width="1" height="2" fill="#090C18" />
<rect x="0" y="57" width="1" height="7" fill="#050403" />
<rect x="2" y="57" width="1" height="2" fill="#090C18" />
<rect x="3" y="57" width="4" height="1" fill="#11162C" />
<rect x="9" y="57" width="1" height="4" fill="#11162C" />
<rect x="23" y="57" width="3" height="1" fill="#111E63" />
<rect x="26" y="57" width="4" height="3" fill="#112463" />
<rect x="34" y="57" width="4" height="3" fill="#112463" />
<rect x="38" y="57" width="3" height="1" fill="#111E63" />
<rect x="54" y="57" width="1" height="4" fill="#11162C" />
<rect x="57" y="57" width="4" height="1" fill="#11162C" />
<rect x="61" y="57" width="1" height="2" fill="#090C18" />
<rect x="63" y="57" width="1" height="7" fill="#050403" />
<rect x="1" y="58" width="1" height="6" fill="#050403" />
<rect x="3" y="58" width="1" height="1" fill="#090C18" />
<rect x="4" y="58" width="3" height="1" fill="#11162C" />
<rect x="10" y="58" width="1" height="3" fill="#11162C" />
<rect x="19" y="58" width="1" height="2" fill="#1B2447" />
<rect x="20" y="58" width="6" height="3" fill="#112463" />
<rect x="38" y="58" width="6" height="3" fill="#112463" />
<rect x="44" y="58" width="1" height="2" fill="#1B2447" />
<rect x="53" y="58" width="1" height="3" fill="#11162C" />
<rect x="57" y="58" width="3" height="1" fill="#11162C" />
<rect x="60" y="58" width="1" height="1" fill="#090C18" />
<rect x="62" y="58" width="1" height="6" fill="#050403" />
<rect x="2" y="59" width="2" height="5" fill="#050403" />
<rect x="4" y="59" width="2" height="1" fill="#090C18" />
<rect x="6" y="59" width="1" height="1" fill="#11162C" />
<rect x="11" y="59" width="2" height="3" fill="#11162C" />
<rect x="51" y="59" width="2" height="3" fill="#11162C" />
<rect x="57" y="59" width="1" height="1" fill="#11162C" />
<rect x="58" y="59" width="2" height="1" fill="#090C18" />
<rect x="60" y="59" width="2" height="5" fill="#050403" />
<rect x="4" y="60" width="1" height="4" fill="#050403" />
<rect x="5" y="60" width="3" height="1" fill="#090C18" />
<rect x="13" y="60" width="2" height="2" fill="#11162C" />
<rect x="15" y="60" width="4" height="1" fill="#1B2447" />
<rect x="19" y="60" width="1" height="2" fill="#112463" />
<rect x="26" y="60" width="3" height="1" fill="#112463" />
<rect x="29" y="60" width="6" height="3" fill="#113163" />
<rect x="35" y="60" width="3" height="1" fill="#112463" />
<rect x="44" y="60" width="1" height="2" fill="#112463" />
<rect x="45" y="60" width="4" height="1" fill="#1B2447" />
<rect x="49" y="60" width="2" height="2" fill="#11162C" />
<rect x="56" y="60" width="3" height="1" fill="#090C18" />
<rect x="59" y="60" width="1" height="4" fill="#050403" />
<rect x="5" y="61" width="3" height="3" fill="#050403" />
<rect x="8" y="61" width="3" height="1" fill="#090C18" />
<rect x="15" y="61" width="3" height="1" fill="#11162C" />
<rect x="18" y="61" width="1" height="1" fill="#0A1647" />
<rect x="20" y="61" width="4" height="1" fill="#112463" />
<rect x="24" y="61" width="5" height="2" fill="#113163" />
<rect x="35" y="61" width="5" height="2" fill="#113163" />
<rect x="40" y="61" width="4" height="1" fill="#112463" />
<rect x="45" y="61" width="1" height="1" fill="#0A1647" />
<rect x="46" y="61" width="3" height="1" fill="#11162C" />
<rect x="53" y="61" width="3" height="1" fill="#090C18" />
<rect x="56" y="61" width="3" height="3" fill="#050403" />
<rect x="8" y="62" width="3" height="2" fill="#050403" />
<rect x="11" y="62" width="5" height="1" fill="#090C18" />
<rect x="16" y="62" width="2" height="1" fill="#11162C" />
<rect x="18" y="62" width="6" height="1" fill="#0A1F47" />
<rect x="40" y="62" width="6" height="1" fill="#0A1F47" />
<rect x="46" y="62" width="2" height="1" fill="#11162C" />
<rect x="48" y="62" width="5" height="1" fill="#090C18" />
<rect x="53" y="62" width="3" height="2" fill="#050403" />
<rect x="11" y="63" width="5" height="1" fill="#050403" />
<rect x="16" y="63" width="2" height="1" fill="#090C18" />
<rect x="18" y="63" width="5" height="1" fill="#05122D" />
<rect x="23" y="63" width="18" height="1" fill="#0A1F47" />
<rect x="41" y="63" width="5" height="1" fill="#05122D" />
<rect x="46" y="63" width="2" height="1" fill="#090C18" />
<rect x="48" y="63" width="5" height="1" fill="#050403" />
</svg>